<?xml version="1.0" encoding="UTF-8" standalone="no"?>
<!DOCTYPE svg PUBLIC "-//W3C//DTD SVG 1.1//EN"
 "http://www.w3.org/Graphics/SVG/1.1/DTD/svg11.dtd">
<!-- Generated by graphviz version 2.43.0 (0)
 -->
<!-- Title: dependency&#45;cruiser output Pages: 1 -->
<svg width="553pt" height="344pt"
 viewBox="0.00 0.00 553.10 344.00" xmlns="http://www.w3.org/2000/svg" xmlns:xlink="http://www.w3.org/1999/xlink">
<g id="graph0" class="graph" transform="scale(1 1) rotate(0) translate(4 340)">
<title>dependency&#45;cruiser output</title>
<polygon fill="white" stroke="transparent" points="-4,4 -4,-340 549.1,-340 549.1,4 -4,4"/>
<g id="clust1" class="cluster">
<title>cluster_src</title>
<path fill="#ffffff" stroke="black" stroke-width="2" d="M20,-8C20,-8 525.1,-8 525.1,-8 531.1,-8 537.1,-14 537.1,-20 537.1,-20 537.1,-316 537.1,-316 537.1,-322 531.1,-328 525.1,-328 525.1,-328 20,-328 20,-328 14,-328 8,-322 8,-316 8,-316 8,-20 8,-20 8,-14 14,-8 20,-8"/>
<text text-anchor="middle" x="272.55" y="-316.8" font-family="Helvetica,sans-Serif" font-weight="bold" font-size="9.00">src</text>
</g>
<g id="clust2" class="cluster">
<title>cluster_src/actions</title>
<path fill="#ffffff" stroke="black" stroke-width="2" d="M368.83,-252C368.83,-252 517.1,-252 517.1,-252 523.1,-252 529.1,-258 529.1,-264 529.1,-264 529.1,-291 529.1,-291 529.1,-297 523.1,-303 517.1,-303 517.1,-303 368.83,-303 368.83,-303 362.83,-303 356.83,-297 356.83,-291 356.83,-291 356.83,-264 356.83,-264 356.83,-258 362.83,-252 368.83,-252"/>
<text text-anchor="middle" x="442.96" y="-291.8" font-family="Helvetica,sans-Serif" font-weight="bold" font-size="9.00">actions</text>
</g>
<g id="clust3" class="cluster">
<title>cluster_src/components</title>
<path fill="#ffffff" stroke="black" stroke-width="2" d="M90,-16C90,-16 447.1,-16 447.1,-16 453.1,-16 459.1,-22 459.1,-28 459.1,-28 459.1,-232 459.1,-232 459.1,-238 453.1,-244 447.1,-244 447.1,-244 90,-244 90,-244 84,-244 78,-238 78,-232 78,-232 78,-28 78,-28 78,-22 84,-16 90,-16"/>
<text text-anchor="middle" x="268.55" y="-232.8" font-family="Helvetica,sans-Serif" font-weight="bold" font-size="9.00">components</text>
</g>
<g id="clust4" class="cluster">
<title>cluster_src/components/CardComponent</title>
<path fill="#ffffff" stroke="black" stroke-width="2" d="M240.52,-109C240.52,-109 439.1,-109 439.1,-109 445.1,-109 451.1,-115 451.1,-121 451.1,-121 451.1,-148 451.1,-148 451.1,-154 445.1,-160 439.1,-160 439.1,-160 240.52,-160 240.52,-160 234.52,-160 228.52,-154 228.52,-148 228.52,-148 228.52,-121 228.52,-121 228.52,-115 234.52,-109 240.52,-109"/>
<text text-anchor="middle" x="339.81" y="-148.8" font-family="Helvetica,sans-Serif" font-weight="bold" font-size="9.00">CardComponent</text>
</g>
<g id="clust5" class="cluster">
<title>cluster_src/components/LeftPart</title>
<path fill="#ffffff" stroke="black" stroke-width="2" d="M165.01,-50C165.01,-50 312.05,-50 312.05,-50 318.05,-50 324.05,-56 324.05,-62 324.05,-62 324.05,-89 324.05,-89 324.05,-95 318.05,-101 312.05,-101 312.05,-101 165.01,-101 165.01,-101 159.01,-101 153.01,-95 153.01,-89 153.01,-89 153.01,-62 153.01,-62 153.01,-56 159.01,-50 165.01,-50"/>
<text text-anchor="middle" x="238.53" y="-89.8" font-family="Helvetica,sans-Serif" font-weight="bold" font-size="9.00">LeftPart</text>
</g>
<g id="clust6" class="cluster">
<title>cluster_src/components/RightPart</title>
<path fill="#ffffff" stroke="black" stroke-width="2" d="M162.01,-168C162.01,-168 315.05,-168 315.05,-168 321.05,-168 327.05,-174 327.05,-180 327.05,-180 327.05,-207 327.05,-207 327.05,-213 321.05,-219 315.05,-219 315.05,-219 162.01,-219 162.01,-219 156.01,-219 150.01,-213 150.01,-207 150.01,-207 150.01,-180 150.01,-180 150.01,-174 156.01,-168 162.01,-168"/>
<text text-anchor="middle" x="238.53" y="-207.8" font-family="Helvetica,sans-Serif" font-weight="bold" font-size="9.00">RightPart</text>
</g>
<g id="clust7" class="cluster">
<title>cluster_src/reducers</title>
<path fill="#ffffff" stroke="black" stroke-width="2" d="M166.27,-252C166.27,-252 317.06,-252 317.06,-252 323.06,-252 329.06,-258 329.06,-264 329.06,-264 329.06,-291 329.06,-291 329.06,-297 323.06,-303 317.06,-303 317.06,-303 166.27,-303 166.27,-303 160.27,-303 154.27,-297 154.27,-291 154.27,-291 154.27,-264 154.27,-264 154.27,-258 160.27,-252 166.27,-252"/>
<text text-anchor="middle" x="241.66" y="-291.8" font-family="Helvetica,sans-Serif" font-weight="bold" font-size="9.00">reducers</text>
</g>
<!-- src/actions/index.js -->
<g id="node1" class="node">
<title>src/actions/index.js</title>
<g id="a_node1"><a xlink:href="src/actions/index.js" xlink:title="index.js">
<path fill="#ffffcc" stroke="black" d="M413.16,-277.5C413.16,-277.5 370.5,-277.5 370.5,-277.5 367.66,-277.5 364.83,-274.67 364.83,-271.83 364.83,-271.83 364.83,-266.17 364.83,-266.17 364.83,-263.33 367.66,-260.5 370.5,-260.5 370.5,-260.5 413.16,-260.5 413.16,-260.5 416,-260.5 418.83,-263.33 418.83,-266.17 418.83,-266.17 418.83,-271.83 418.83,-271.83 418.83,-274.67 416,-277.5 413.16,-277.5"/>
<text text-anchor="middle" x="391.83" y="-266.3" font-family="Helvetica,sans-Serif" font-size="9.00">index.js</text>
</a>
</g>
</g>
<!-- src/actions/types.js -->
<g id="node2" class="node">
<title>src/actions/types.js</title>
<g id="a_node2"><a xlink:href="src/actions/types.js" xlink:title="types.js">
<path fill="#ffffcc" stroke="black" d="M515.43,-277.5C515.43,-277.5 472.76,-277.5 472.76,-277.5 469.93,-277.5 467.1,-274.67 467.1,-271.83 467.1,-271.83 467.1,-266.17 467.1,-266.17 467.1,-263.33 469.93,-260.5 472.76,-260.5 472.76,-260.5 515.43,-260.5 515.43,-260.5 518.26,-260.5 521.1,-263.33 521.1,-266.17 521.1,-266.17 521.1,-271.83 521.1,-271.83 521.1,-274.67 518.26,-277.5 515.43,-277.5"/>
<text text-anchor="middle" x="494.1" y="-266.3" font-family="Helvetica,sans-Serif" font-size="9.00">types.js</text>
</a>
</g>
</g>
<!-- src/actions/index.js&#45;&gt;src/actions/types.js -->
<g id="edge1" class="edge">
<title>src/actions/index.js&#45;&gt;src/actions/types.js</title>
<path fill="none" stroke="#000000" stroke-width="2" stroke-opacity="0.200000" d="M418.91,-269C431.69,-269 447.21,-269 460.74,-269"/>
<polygon fill="#000000" fill-opacity="0.200000" stroke="#000000" stroke-width="2" stroke-opacity="0.200000" points="460.8,-271.1 466.8,-269 460.8,-266.9 460.8,-271.1"/>
</g>
<!-- src/components/App.js -->
<g id="node3" class="node">
<title>src/components/App.js</title>
<g id="a_node3"><a xlink:href="src/components/App.js" xlink:title="App.js">
<path fill="#ffffcc" stroke="black" d="M134.33,-134.5C134.33,-134.5 91.67,-134.5 91.67,-134.5 88.83,-134.5 86,-131.67 86,-128.83 86,-128.83 86,-123.17 86,-123.17 86,-120.33 88.83,-117.5 91.67,-117.5 91.67,-117.5 134.33,-117.5 134.33,-117.5 137.17,-117.5 140,-120.33 140,-123.17 140,-123.17 140,-128.83 140,-128.83 140,-131.67 137.17,-134.5 134.33,-134.5"/>
<text text-anchor="middle" x="113" y="-123.3" font-family="Helvetica,sans-Serif" font-size="9.00">App.js</text>
</a>
</g>
</g>
<!-- src/components/App.scss -->
<g id="node4" class="node">
<title>src/components/App.scss</title>
<g id="a_node4"><a xlink:href="src/components/App.scss" xlink:title="App.scss">
<path fill="#ffffcc" stroke="black" d="M210.6,-41.5C210.6,-41.5 167.93,-41.5 167.93,-41.5 165.1,-41.5 162.27,-38.67 162.27,-35.83 162.27,-35.83 162.27,-30.17 162.27,-30.17 162.27,-27.33 165.1,-24.5 167.93,-24.5 167.93,-24.5 210.6,-24.5 210.6,-24.5 213.43,-24.5 216.27,-27.33 216.27,-30.17 216.27,-30.17 216.27,-35.83 216.27,-35.83 216.27,-38.67 213.43,-41.5 210.6,-41.5"/>
<text text-anchor="middle" x="189.27" y="-30.3" font-family="Helvetica,sans-Serif" font-size="9.00">App.scss</text>
</a>
</g>
</g>
<!-- src/components/App.js&#45;&gt;src/components/App.scss -->
<g id="edge2" class="edge">
<title>src/components/App.js&#45;&gt;src/components/App.scss</title>
<path fill="none" stroke="#000000" stroke-width="2" stroke-opacity="0.200000" d="M115.64,-117.34C119.14,-101.27 128.77,-66.66 150.01,-47 151.93,-45.22 154.11,-43.66 156.41,-42.29"/>
<polygon fill="#000000" fill-opacity="0.200000" stroke="#000000" stroke-width="2" stroke-opacity="0.200000" points="157.6,-44.04 161.99,-39.45 155.69,-40.3 157.6,-44.04"/>
</g>
<!-- src/components/LeftPart/LeftPart.js -->
<g id="node5" class="node">
<title>src/components/LeftPart/LeftPart.js</title>
<g id="a_node5"><a xlink:href="src/components/LeftPart/LeftPart.js" xlink:title="LeftPart.js">
<path fill="#ffffcc" stroke="black" d="M211.62,-75.5C211.62,-75.5 166.91,-75.5 166.91,-75.5 164.08,-75.5 161.25,-72.67 161.25,-69.83 161.25,-69.83 161.25,-64.17 161.25,-64.17 161.25,-61.33 164.08,-58.5 166.91,-58.5 166.91,-58.5 211.62,-58.5 211.62,-58.5 214.45,-58.5 217.29,-61.33 217.29,-64.17 217.29,-64.17 217.29,-69.83 217.29,-69.83 217.29,-72.67 214.45,-75.5 211.62,-75.5"/>
<text text-anchor="middle" x="189.27" y="-64.3" font-family="Helvetica,sans-Serif" font-size="9.00">LeftPart.js</text>
</a>
</g>
</g>
<!-- src/components/App.js&#45;&gt;src/components/LeftPart/LeftPart.js -->
<g id="edge3" class="edge">
<title>src/components/App.js&#45;&gt;src/components/LeftPart/LeftPart.js</title>
<path fill="none" stroke="#000000" stroke-width="2" stroke-opacity="0.200000" d="M124.96,-117.29C137.46,-107.36 158.03,-91.02 172.31,-79.68"/>
<polygon fill="#000000" fill-opacity="0.200000" stroke="#000000" stroke-width="2" stroke-opacity="0.200000" points="173.87,-81.12 177.26,-75.74 171.26,-77.83 173.87,-81.12"/>
</g>
<!-- src/components/RightPart/RightPart.js -->
<g id="node6" class="node">
<title>src/components/RightPart/RightPart.js</title>
<g id="a_node6"><a xlink:href="src/components/RightPart/RightPart.js" xlink:title="RightPart.js">
<path fill="#ffffcc" stroke="black" d="M214.62,-193.5C214.62,-193.5 163.91,-193.5 163.91,-193.5 161.08,-193.5 158.25,-190.67 158.25,-187.83 158.25,-187.83 158.25,-182.17 158.25,-182.17 158.25,-179.33 161.08,-176.5 163.91,-176.5 163.91,-176.5 214.62,-176.5 214.62,-176.5 217.45,-176.5 220.28,-179.33 220.28,-182.17 220.28,-182.17 220.28,-187.83 220.28,-187.83 220.28,-190.67 217.45,-193.5 214.62,-193.5"/>
<text text-anchor="middle" x="189.27" y="-182.3" font-family="Helvetica,sans-Serif" font-size="9.00">RightPart.js</text>
</a>
</g>
</g>
<!-- src/components/App.js&#45;&gt;src/components/RightPart/RightPart.js -->
<g id="edge4" class="edge">
<title>src/components/App.js&#45;&gt;src/components/RightPart/RightPart.js</title>
<path fill="none" stroke="#000000" stroke-width="2" stroke-opacity="0.200000" d="M134.65,-134.57C137.21,-135.92 139.72,-137.41 142.01,-139 155.42,-148.35 168.42,-161.78 177.2,-171.72"/>
<polygon fill="#000000" fill-opacity="0.200000" stroke="#000000" stroke-width="2" stroke-opacity="0.200000" points="175.64,-173.13 181.16,-176.29 178.82,-170.38 175.64,-173.13"/>
</g>
<!-- src/components/LeftPart/LeftPart.js&#45;&gt;src/actions/index.js -->
<g id="edge7" class="edge">
<title>src/components/LeftPart/LeftPart.js&#45;&gt;src/actions/index.js</title>
<path fill="none" stroke="#000000" stroke-width="2" stroke-opacity="0.200000" d="M193.41,-75.53C199.5,-92.39 213,-131.28 220.52,-165 223.31,-177.48 219.34,-213.09 228.52,-222 244.66,-237.65 307.72,-225.97 329.06,-233 345.42,-238.39 362.19,-248.51 374.12,-256.65"/>
<polygon fill="#000000" fill-opacity="0.200000" stroke="#000000" stroke-width="2" stroke-opacity="0.200000" points="373.12,-258.52 379.24,-260.23 375.53,-255.07 373.12,-258.52"/>
</g>
<!-- src/components/CardComponent/CardComponent.js -->
<g id="node7" class="node">
<title>src/components/CardComponent/CardComponent.js</title>
<g id="a_node7"><a xlink:href="src/components/CardComponent/CardComponent.js" xlink:title="CardComponent.js">
<path fill="#ffffcc" stroke="black" d="M321.91,-134.5C321.91,-134.5 242.17,-134.5 242.17,-134.5 239.34,-134.5 236.51,-131.67 236.51,-128.83 236.51,-128.83 236.51,-123.17 236.51,-123.17 236.51,-120.33 239.34,-117.5 242.17,-117.5 242.17,-117.5 321.91,-117.5 321.91,-117.5 324.75,-117.5 327.58,-120.33 327.58,-123.17 327.58,-123.17 327.58,-128.83 327.58,-128.83 327.58,-131.67 324.75,-134.5 321.91,-134.5"/>
<text text-anchor="middle" x="282.04" y="-123.3" font-family="Helvetica,sans-Serif" font-size="9.00">CardComponent.js</text>
</a>
</g>
</g>
<!-- src/components/LeftPart/LeftPart.js&#45;&gt;src/components/CardComponent/CardComponent.js -->
<g id="edge8" class="edge">
<title>src/components/LeftPart/LeftPart.js&#45;&gt;src/components/CardComponent/CardComponent.js</title>
<path fill="none" stroke="#000000" stroke-width="2" stroke-opacity="0.200000" d="M197.43,-75.58C204.62,-83.76 216.33,-95.97 228.52,-104 234.91,-108.21 242.23,-111.88 249.34,-114.96"/>
<polygon fill="#000000" fill-opacity="0.200000" stroke="#000000" stroke-width="2" stroke-opacity="0.200000" points="248.89,-117.04 255.23,-117.4 250.49,-113.16 248.89,-117.04"/>
</g>
<!-- src/components/LeftPart/LeftPart.scss -->
<g id="node9" class="node">
<title>src/components/LeftPart/LeftPart.scss</title>
<g id="a_node9"><a xlink:href="src/components/LeftPart/LeftPart.scss" xlink:title="LeftPart.scss">
<path fill="#ffffcc" stroke="black" d="M310.39,-75.5C310.39,-75.5 253.69,-75.5 253.69,-75.5 250.86,-75.5 248.02,-72.67 248.02,-69.83 248.02,-69.83 248.02,-64.17 248.02,-64.17 248.02,-61.33 250.86,-58.5 253.69,-58.5 253.69,-58.5 310.39,-58.5 310.39,-58.5 313.23,-58.5 316.06,-61.33 316.06,-64.17 316.06,-64.17 316.06,-69.83 316.06,-69.83 316.06,-72.67 313.23,-75.5 310.39,-75.5"/>
<text text-anchor="middle" x="282.04" y="-64.3" font-family="Helvetica,sans-Serif" font-size="9.00">LeftPart.scss</text>
</a>
</g>
</g>
<!-- src/components/LeftPart/LeftPart.js&#45;&gt;src/components/LeftPart/LeftPart.scss -->
<g id="edge9" class="edge">
<title>src/components/LeftPart/LeftPart.js&#45;&gt;src/components/LeftPart/LeftPart.scss</title>
<path fill="none" stroke="#000000" stroke-width="2" stroke-opacity="0.200000" d="M217.5,-67C225.08,-67 233.46,-67 241.58,-67"/>
<polygon fill="#000000" fill-opacity="0.200000" stroke="#000000" stroke-width="2" stroke-opacity="0.200000" points="241.73,-69.1 247.73,-67 241.73,-64.9 241.73,-69.1"/>
</g>
<!-- src/components/RightPart/RightPart.js&#45;&gt;src/actions/index.js -->
<g id="edge10" class="edge">
<title>src/components/RightPart/RightPart.js&#45;&gt;src/actions/index.js</title>
<path fill="none" stroke="#000000" stroke-width="2" stroke-opacity="0.200000" d="M194.66,-193.54C200.72,-204.38 212.71,-222.78 228.52,-232 267.68,-254.81 285.05,-238.21 329.06,-249 339.77,-251.62 351.31,-255.16 361.49,-258.53"/>
<polygon fill="#000000" fill-opacity="0.200000" stroke="#000000" stroke-width="2" stroke-opacity="0.200000" points="360.95,-260.57 367.3,-260.49 362.29,-256.59 360.95,-260.57"/>
</g>
<!-- src/reducers/baseReducer.js -->
<g id="node10" class="node">
<title>src/reducers/baseReducer.js</title>
<g id="a_node10"><a xlink:href="src/reducers/baseReducer.js" xlink:title="baseReducer.js">
<path fill="#ffffcc" stroke="black" d="M315.42,-277.5C315.42,-277.5 248.67,-277.5 248.67,-277.5 245.83,-277.5 243,-274.67 243,-271.83 243,-271.83 243,-266.17 243,-266.17 243,-263.33 245.83,-260.5 248.67,-260.5 248.67,-260.5 315.42,-260.5 315.42,-260.5 318.25,-260.5 321.08,-263.33 321.08,-266.17 321.08,-266.17 321.08,-271.83 321.08,-271.83 321.08,-274.67 318.25,-277.5 315.42,-277.5"/>
<text text-anchor="middle" x="282.04" y="-266.3" font-family="Helvetica,sans-Serif" font-size="9.00">baseReducer.js</text>
</a>
</g>
</g>
<!-- src/components/RightPart/RightPart.js&#45;&gt;src/reducers/baseReducer.js -->
<g id="edge11" class="edge">
<title>src/components/RightPart/RightPart.js&#45;&gt;src/reducers/baseReducer.js</title>
<path fill="none" stroke="#000000" stroke-width="2" stroke-opacity="0.200000" d="M193.69,-193.62C199.23,-206.58 211.3,-231.14 228.52,-246 234.12,-250.83 240.88,-254.79 247.67,-257.98"/>
<polygon fill="#000000" fill-opacity="0.200000" stroke="#000000" stroke-width="2" stroke-opacity="0.200000" points="247.01,-259.98 253.35,-260.48 248.71,-256.14 247.01,-259.98"/>
</g>
<!-- src/components/RightPart/RightPart.scss -->
<g id="node11" class="node">
<title>src/components/RightPart/RightPart.scss</title>
<g id="a_node11"><a xlink:href="src/components/RightPart/RightPart.scss" xlink:title="RightPart.scss">
<path fill="#ffffcc" stroke="black" d="M313.39,-193.5C313.39,-193.5 250.69,-193.5 250.69,-193.5 247.86,-193.5 245.03,-190.67 245.03,-187.83 245.03,-187.83 245.03,-182.17 245.03,-182.17 245.03,-179.33 247.86,-176.5 250.69,-176.5 250.69,-176.5 313.39,-176.5 313.39,-176.5 316.23,-176.5 319.06,-179.33 319.06,-182.17 319.06,-182.17 319.06,-187.83 319.06,-187.83 319.06,-190.67 316.23,-193.5 313.39,-193.5"/>
<text text-anchor="middle" x="282.04" y="-182.3" font-family="Helvetica,sans-Serif" font-size="9.00">RightPart.scss</text>
</a>
</g>
</g>
<!-- src/components/RightPart/RightPart.js&#45;&gt;src/components/RightPart/RightPart.scss -->
<g id="edge12" class="edge">
<title>src/components/RightPart/RightPart.js&#45;&gt;src/components/RightPart/RightPart.scss</title>
<path fill="none" stroke="#000000" stroke-width="2" stroke-opacity="0.200000" d="M220.49,-185C226.37,-185 232.64,-185 238.82,-185"/>
<polygon fill="#000000" fill-opacity="0.200000" stroke="#000000" stroke-width="2" stroke-opacity="0.200000" points="238.96,-187.1 244.96,-185 238.96,-182.9 238.96,-187.1"/>
</g>
<!-- src/components/CardComponent/CardComponent.js&#45;&gt;src/actions/index.js -->
<g id="edge5" class="edge">
<title>src/components/CardComponent/CardComponent.js&#45;&gt;src/actions/index.js</title>
<path fill="none" stroke="#000000" stroke-width="2" stroke-opacity="0.200000" d="M295.36,-134.65C305.24,-141.98 319.06,-153.16 329.06,-165 353.5,-193.9 374.14,-233.65 384.22,-254.65"/>
<polygon fill="#000000" fill-opacity="0.200000" stroke="#000000" stroke-width="2" stroke-opacity="0.200000" points="382.42,-255.77 386.89,-260.29 386.22,-253.97 382.42,-255.77"/>
</g>
<!-- src/components/CardComponent/CardComponent.scss -->
<g id="node8" class="node">
<title>src/components/CardComponent/CardComponent.scss</title>
<g id="a_node8"><a xlink:href="src/components/CardComponent/CardComponent.scss" xlink:title="CardComponent.scss">
<path fill="#ffffcc" stroke="black" d="M437.2,-134.5C437.2,-134.5 346.46,-134.5 346.46,-134.5 343.62,-134.5 340.79,-131.67 340.79,-128.83 340.79,-128.83 340.79,-123.17 340.79,-123.17 340.79,-120.33 343.62,-117.5 346.46,-117.5 346.46,-117.5 437.2,-117.5 437.2,-117.5 440.03,-117.5 442.87,-120.33 442.87,-123.17 442.87,-123.17 442.87,-128.83 442.87,-128.83 442.87,-131.67 440.03,-134.5 437.2,-134.5"/>
<text text-anchor="middle" x="391.83" y="-123.3" font-family="Helvetica,sans-Serif" font-size="9.00">CardComponent.scss</text>
</a>
</g>
</g>
<!-- src/components/CardComponent/CardComponent.js&#45;&gt;src/components/CardComponent/CardComponent.scss -->
<g id="edge6" class="edge">
<title>src/components/CardComponent/CardComponent.js&#45;&gt;src/components/CardComponent/CardComponent.scss</title>
<path fill="none" stroke="#000000" stroke-width="2" stroke-opacity="0.200000" d="M327.82,-126C330.09,-126 332.39,-126 334.69,-126"/>
<polygon fill="#000000" fill-opacity="0.200000" stroke="#000000" stroke-width="2" stroke-opacity="0.200000" points="334.78,-128.1 340.78,-126 334.78,-123.9 334.78,-128.1"/>
</g>
<!-- src/reducers/baseReducer.js&#45;&gt;src/actions/types.js -->
<g id="edge16" class="edge">
<title>src/reducers/baseReducer.js&#45;&gt;src/actions/types.js</title>
<path fill="none" stroke="#000000" stroke-width="2" stroke-opacity="0.200000" d="M309.97,-277.54C319.53,-280.16 330.43,-282.7 340.56,-284 392.82,-290.7 407.55,-294.87 459.1,-284 463.25,-283.12 467.52,-281.71 471.57,-280.08"/>
<polygon fill="#000000" fill-opacity="0.200000" stroke="#000000" stroke-width="2" stroke-opacity="0.200000" points="472.63,-281.91 477.3,-277.6 470.96,-278.06 472.63,-281.91"/>
</g>
<!-- src/index.js -->
<g id="node12" class="node">
<title>src/index.js</title>
<g id="a_node12"><a xlink:href="src/index.js" xlink:title="index.js">
<path fill="#ffffcc" stroke="black" d="M64.33,-269.5C64.33,-269.5 21.67,-269.5 21.67,-269.5 18.83,-269.5 16,-266.67 16,-263.83 16,-263.83 16,-258.17 16,-258.17 16,-255.33 18.83,-252.5 21.67,-252.5 21.67,-252.5 64.33,-252.5 64.33,-252.5 67.17,-252.5 70,-255.33 70,-258.17 70,-258.17 70,-263.83 70,-263.83 70,-266.67 67.17,-269.5 64.33,-269.5"/>
<text text-anchor="middle" x="43" y="-258.3" font-family="Helvetica,sans-Serif" font-size="9.00">index.js</text>
</a>
</g>
</g>
<!-- src/index.js&#45;&gt;src/components/App.js -->
<g id="edge13" class="edge">
<title>src/index.js&#45;&gt;src/components/App.js</title>
<path fill="none" stroke="#000000" stroke-width="2" stroke-opacity="0.200000" d="M43.9,-252.37C44.1,-230.51 47.65,-172.33 78,-139 78.83,-138.09 79.73,-137.24 80.69,-136.45"/>
<polygon fill="#000000" fill-opacity="0.200000" stroke="#000000" stroke-width="2" stroke-opacity="0.200000" points="82.04,-138.07 85.85,-132.98 79.7,-134.58 82.04,-138.07"/>
</g>
<!-- src/index.scss -->
<g id="node13" class="node">
<title>src/index.scss</title>
<g id="a_node13"><a xlink:href="src/index.scss" xlink:title="index.scss">
<path fill="#ffffcc" stroke="black" d="M136.35,-269.5C136.35,-269.5 89.65,-269.5 89.65,-269.5 86.82,-269.5 83.98,-266.67 83.98,-263.83 83.98,-263.83 83.98,-258.17 83.98,-258.17 83.98,-255.33 86.82,-252.5 89.65,-252.5 89.65,-252.5 136.35,-252.5 136.35,-252.5 139.18,-252.5 142.02,-255.33 142.02,-258.17 142.02,-258.17 142.02,-263.83 142.02,-263.83 142.02,-266.67 139.18,-269.5 136.35,-269.5"/>
<text text-anchor="middle" x="113" y="-258.3" font-family="Helvetica,sans-Serif" font-size="9.00">index.scss</text>
</a>
</g>
</g>
<!-- src/index.js&#45;&gt;src/index.scss -->
<g id="edge14" class="edge">
<title>src/index.js&#45;&gt;src/index.scss</title>
<path fill="none" stroke="#000000" stroke-width="2" stroke-opacity="0.200000" d="M70.1,-261C72.62,-261 75.21,-261 77.81,-261"/>
<polygon fill="#000000" fill-opacity="0.200000" stroke="#000000" stroke-width="2" stroke-opacity="0.200000" points="77.83,-263.1 83.83,-261 77.83,-258.9 77.83,-263.1"/>
</g>
<!-- src/reducers/index.js -->
<g id="node14" class="node">
<title>src/reducers/index.js</title>
<g id="a_node14"><a xlink:href="src/reducers/index.js" xlink:title="index.js">
<path fill="#ffffcc" stroke="black" d="M210.6,-277.5C210.6,-277.5 167.93,-277.5 167.93,-277.5 165.1,-277.5 162.27,-274.67 162.27,-271.83 162.27,-271.83 162.27,-266.17 162.27,-266.17 162.27,-263.33 165.1,-260.5 167.93,-260.5 167.93,-260.5 210.6,-260.5 210.6,-260.5 213.43,-260.5 216.27,-263.33 216.27,-266.17 216.27,-266.17 216.27,-271.83 216.27,-271.83 216.27,-274.67 213.43,-277.5 210.6,-277.5"/>
<text text-anchor="middle" x="189.27" y="-266.3" font-family="Helvetica,sans-Serif" font-size="9.00">index.js</text>
</a>
</g>
</g>
<!-- src/index.js&#45;&gt;src/reducers/index.js -->
<g id="edge15" class="edge">
<title>src/index.js&#45;&gt;src/reducers/index.js</title>
<path fill="none" stroke="#000000" stroke-width="2" stroke-opacity="0.200000" d="M59.8,-269.6C65.38,-272.19 71.81,-274.7 78,-276 103.91,-281.46 133.93,-279 156.1,-275.57"/>
<polygon fill="#000000" fill-opacity="0.200000" stroke="#000000" stroke-width="2" stroke-opacity="0.200000" points="156.55,-277.62 162.14,-274.58 155.88,-273.48 156.55,-277.62"/>
</g>
<!-- src/reducers/index.js&#45;&gt;src/reducers/baseReducer.js -->
<g id="edge17" class="edge">
<title>src/reducers/index.js&#45;&gt;src/reducers/baseReducer.js</title>
<path fill="none" stroke="#000000" stroke-width="2" stroke-opacity="0.200000" d="M216.52,-269C222.78,-269 229.62,-269 236.45,-269"/>
<polygon fill="#000000" fill-opacity="0.200000" stroke="#000000" stroke-width="2" stroke-opacity="0.200000" points="236.69,-271.1 242.69,-269 236.69,-266.9 236.69,-271.1"/>
</g>
</g>
</svg>
